<?xml version="1.0" encoding="UTF-8" standalone="no"?>
<!-- Created with Inkscape (http://www.inkscape.org/) -->

<svg
   width="138.90912mm"
   height="138.90912mm"
   viewBox="0 0 138.90912 138.90912"
   version="1.1"
   id="svg5"
   sodipodi:docname="bitmap_Layer 1_tdmlogo.svg"
   xml:space="preserve"
   xmlns:inkscape="http://www.inkscape.org/namespaces/inkscape"
   xmlns:sodipodi="http://sodipodi.sourceforge.net/DTD/sodipodi-0.dtd"
   xmlns:xlink="http://www.w3.org/1999/xlink"
   xmlns="http://www.w3.org/2000/svg"
   xmlns:svg="http://www.w3.org/2000/svg"><sodipodi:namedview
     id="namedview7"
     pagecolor="#ffffff"
     bordercolor="#000000"
     borderopacity="0.25"
     inkscape:showpageshadow="2"
     inkscape:pageopacity="0.0"
     inkscape:pagecheckerboard="0"
     inkscape:deskcolor="#d1d1d1"
     inkscape:document-units="mm"
     showgrid="false"
     showguides="true"
     inkscape:zoom="0.73851712"
     inkscape:cx="180.76765"
     inkscape:cy="561.93687"
     inkscape:window-width="1920"
     inkscape:window-height="1009"
     inkscape:window-x="-8"
     inkscape:window-y="-8"
     inkscape:window-maximized="1"
     inkscape:current-layer="layer1"><sodipodi:guide
       position="-35.54544,217.95453"
       orientation="0,793.70079"
       id="guide1393"
       inkscape:locked="false" /><sodipodi:guide
       position="174.45455,217.95453"
       orientation="1122.5197,0"
       id="guide1395"
       inkscape:locked="false" /><sodipodi:guide
       position="174.45455,-79.045459"
       orientation="0,-793.70079"
       id="guide1397"
       inkscape:locked="false" /><sodipodi:guide
       position="-35.54544,-79.045459"
       orientation="-1122.5197,0"
       id="guide1399"
       inkscape:locked="false" /><sodipodi:guide
       position="-35.54544,217.95453"
       orientation="0,793.70079"
       id="guide1401"
       inkscape:locked="false" /><sodipodi:guide
       position="174.45455,217.95453"
       orientation="1122.5197,0"
       id="guide1403"
       inkscape:locked="false" /><sodipodi:guide
       position="174.45455,-79.045459"
       orientation="0,-793.70079"
       id="guide1405"
       inkscape:locked="false" /><sodipodi:guide
       position="-35.54544,-79.045459"
       orientation="-1122.5197,0"
       id="guide1407"
       inkscape:locked="false" /><sodipodi:guide
       position="69.454556,-79.045459"
       orientation="297,0"
       id="guide2162"
       inkscape:locked="false" /><sodipodi:guide
       position="-35.54544,69.454535"
       orientation="0,210"
       id="guide2164"
       inkscape:locked="false" /></sodipodi:namedview><defs
     id="defs2"><linearGradient
       inkscape:collect="always"
       id="linearGradient1300"><stop
         style="stop-color:#00ff3a;stop-opacity:1;"
         offset="0"
         id="stop1296" /><stop
         style="stop-color:#060000;stop-opacity:1;"
         offset="1"
         id="stop1298" /></linearGradient><inkscape:path-effect
       effect="copy_rotate"
       starting_point="336.27039,262.51461"
       origin="262.5146,262.51461"
       id="path-effect594"
       is_visible="true"
       lpeversion="1.2"
       lpesatellites=""
       method="normal"
       num_copies="53"
       starting_angle="0"
       rotation_angle="24"
       gap="-0.01"
       copies_to_360="true"
       mirror_copies="false"
       split_items="false"
       link_styles="false" /><radialGradient
       inkscape:collect="always"
       xlink:href="#linearGradient1300"
       id="radialGradient1302"
       cx="-169.96036"
       cy="-64.735802"
       fx="-169.96036"
       fy="-64.735802"
       r="51.901413"
       gradientUnits="userSpaceOnUse" /></defs><g
     inkscape:label="Layer 1"
     inkscape:groupmode="layer"
     id="layer1"
     transform="translate(-35.545441,-79.045419)"><circle
       style="fill:none;stroke:none;stroke-width:0.264583"
       id="path111"
       cx="-183.11427"
       cy="2.9158468"
       r="53.202049"
       transform="rotate(-129.72038)" /><circle
       style="fill:#020200;fill-opacity:1;stroke:#000000;stroke-width:0.344534"
       id="circle2550"
       cx="-181.83946"
       cy="-3.4139473"
       r="69.278717"
       transform="rotate(-126.33859)" /><circle
       style="fill:url(#radialGradient1302);fill-opacity:1;stroke:#000000;stroke-width:0.257474"
       id="circle1028"
       cx="-169.96036"
       cy="-64.735802"
       r="51.772675"
       transform="rotate(-146.11423)" /><path
       style="fill:#000000;stroke-width:0.264583"
       d="m 102.2767,148.5 3.98995,-33.27429 c 0,0 1.07275,-4.48497 4.45288,-5.79255 4.35788,-1.68581 10.875,0.21459 10.4637,9.84924 -0.0838,1.96211 -1.13196,2.68016 -2.59631,1.41832 -1.73633,-1.4962 -3.75419,-4.46571 -5.17887,-5.28408 -1.77008,-1.01677 -2.62962,2.91988 -2.8044,5.5636 C 110.47477,122.92977 107.531,148.5 107.531,148.5 Z"
       id="path532"
       sodipodi:nodetypes="ccssssscc" /><path
       style="fill:#000000;stroke-width:0.264583"
       d="m 107.531,148.5 -3.98995,33.27429 c 0,0 -1.07275,4.48497 -4.45288,5.79255 -4.35788,1.68581 -10.875,-0.21459 -10.4637,-9.84924 0.0838,-1.96211 1.13196,-2.68016 2.59631,-1.41832 1.73633,1.4962 3.75419,4.46571 5.17887,5.28408 1.77008,1.01677 2.62962,-2.91988 2.8044,-5.5636 C 99.33293,174.07023 102.2767,148.5 102.2767,148.5 Z"
       id="path538"
       sodipodi:nodetypes="ccssssscc" /><path
       sodipodi:type="star"
       style="fill:none;stroke:#000000;stroke-width:0.264583"
       id="path592"
       inkscape:flatsided="false"
       sodipodi:sides="5"
       sodipodi:cx="262.51459"
       sodipodi:cy="262.51462"
       sodipodi:r1="77.852554"
       sodipodi:r2="38.926277"
       sodipodi:arg1="0.4021416"
       sodipodi:arg2="1.0304601"
       inkscape:rounded="0"
       inkscape:randomized="0"
       d="m 334.15645,292.98533 -51.61724,2.90996 -26.86544,44.17075 -18.71814,-48.19168 -50.31076,-11.90104 40.04879,-32.69406 -4.22832,-51.52599 43.46965,27.98564 47.69752,-19.94378 -13.18306,49.99013 z m 3.10102,-8.68718 -50.91077,8.99447 -21.45266,47.03818 -24.28654,-45.63957 -51.36521,-5.86709 35.90086,-37.20128 -10.29278,-50.66425 46.47449,22.64792 45.00392,-25.44513 -7.17804,51.19846 z m 2.05179,-8.99297 -49.48962,14.95272 -15.73873,49.24529 -29.51402,-42.44678 -51.6986,0.24921 31.24896,-41.18628 -16.21276,-49.09127 48.82694,16.99226 41.67856,-30.58928 -1.07225,51.68807 z m 0.97377,-9.17253 -47.37376,20.70107 -9.80386,50.76112 -34.32718,-38.65814 -51.30625,6.36201 26.15839,-44.5931 -21.90514,-46.82918 50.49395,11.09809 37.76813,-35.30405 5.04859,51.4521 z m -0.11793,-9.22331 -44.59287,26.15881 -3.73137,51.56436 -38.65846,-34.32681 -50.19368,12.38551 20.70062,-47.37394 -27.29003,-43.9097 51.45215,5.04811 33.32752,-39.5232 11.09855,50.49385 z m -1.20798,-9.14463 -41.18598,31.24934 2.39349,51.64377 -42.44706,-29.51363 -48.3765,18.23515 14.95226,-49.48976 -32.29182,-40.37382 51.68806,-1.07273 28.41906,-43.18755 16.99273,48.82678 z m -2.28106,-8.93757 -37.20094,35.9012 8.48477,50.9982 -45.6398,-24.28612 -45.88023,23.8288 8.994,-50.91085 -36.84031,-36.27119 51.1984,-7.17851 23.11166,-46.24563 22.64835,46.47429 z m -3.32212,-8.60505 -32.69369,40.04909 14.45693,49.63672 -48.19185,-18.7177 -42.73989,29.08796 2.90949,-51.61727 -40.87164,-31.65937 49.99001,-13.18353 17.47983,-48.65453 27.98604,43.4694 z m -4.31655,-8.15174 -27.72749,43.63478 20.22616,47.57846 -50.0674,-12.88652 -38.99958,33.93877 -3.21587,-51.59908 -44.32922,-26.60314 48.07988,-19.00348 11.60261,-50.38041 32.93088,39.85429 z m -5.25039,-7.58398 -22.37204,46.60792 25.71144,44.8523 -51.24011,-6.87444 -34.7118,38.31316 -9.29609,-50.85656 -47.16451,-21.17346 45.49481,-24.55665 5.56253,-51.39908 37.41342,35.67972 z m -6.11052,-6.90978 -16.70255,48.9268 30.8358,41.49651 -51.69352,-0.76585 -29.93674,42.14972 -15.24581,-49.40013 -49.33772,-15.44655 42.2711,-29.7651 -0.55565,-51.69621 41.37078,31.00427 z m -6.88487,-6.13856 -10.79858,50.55885 35.52729,37.5582 -51.42127,5.35348 -24.74144,45.39458 -20.98151,-47.25022 -50.81834,-9.5028 38.45399,-34.55572 -6.66603,-51.26764 44.74738,25.8936 z m -7.56257,-5.28119 -4.74304,51.48117 39.72006,33.09266 -50.42718,11.39766 -19.19882,48.00221 -26.42267,-44.43702 -51.58558,-3.42567 34.09707,-38.86125 -12.68282,-50.11938 47.49582,20.41945 z m -8.13412,-4.34967 1.3791,51.6808 43.35524,28.16257 -48.7252,17.28184 -13.38669,49.936 -31.49292,-41.00003 -51.62867,2.69957 29.2615,-42.62126 -18.52158,-48.26756 49.57752,14.65864 z m -8.59147,-3.35708 7.48187,51.15494 46.38181,22.83714 -46.33922,22.92342 -7.38664,51.16879 -36.12108,-36.98749 -50.94701,8.78691 24.01517,-45.78295 -24.10034,-45.73817 50.96327,8.69206 z m -8.92822,-2.31739 13.47961,49.91099 48.75728,17.19112 -43.30274,28.24322 -1.2829,51.68327 -40.24218,-32.45572 -49.55015,14.7509 18.4317,-48.30195 -29.34078,-42.56672 51.6336,2.60347 z m -9.13964,-1.24515 19.28813,47.96639 50.44831,11.30378 -39.65839,33.16653 4.83885,51.47225 -43.79837,-27.46834 -47.45773,20.50782 12.58951,-50.14291 -34.16934,-38.79772 51.57911,-3.52167 z m -9.22276,-0.15544 24.82589,45.34845 51.43115,5.25776 -35.45732,37.62427 10.89267,50.53866 -46.73972,-22.09538 -44.6991,25.97686 6.57059,-51.27996 -38.51824,-34.48409 50.80056,-9.59738 z m -9.1764,0.93646 30.01514,42.09392 51.69201,-0.86207 -30.75851,41.55383 16.79358,48.89563 -49.02494,-16.41224 -41.313,31.08123 0.45942,-51.69715 -42.32642,-29.68638 49.30888,-15.53835 z m -9.00125,2.01521 34.78305,38.24848 51.22723,-6.9698 -25.62791,44.90008 22.45875,46.5662 -50.62197,-10.49871 -37.34695,35.7493 -5.65819,-51.38864 -45.54044,-24.47192 47.12502,-21.26122 z m -8.69971,3.06567 39.06267,33.86611 50.04333,-12.97968 -20.13756,47.61602 27.80866,43.58309 -51.50838,-4.43779 -32.85664,39.91551 -11.69636,-50.35873 -48.11517,-18.91395 44.27962,-26.68561 z m -8.27607,4.07309 42.79395,29.00835 48.15693,-18.80736 -14.36452,49.66354 32.76818,39.98817 -51.67171,1.68541 -27.90509,43.52141 -17.57036,-48.6219 -50.01447,-13.09046 40.81264,-31.7354 z m -7.73625,5.02334 45.9245,23.74337 45.59452,-24.37103 -8.38983,51.01389 37.2677,35.8319 -51.10969,7.78496 -22.56181,46.51636 -23.1977,-46.20252 -51.21167,-7.08321 36.77273,-36.33969 z m -7.08781,5.90308 48.41036,18.14507 42.39205,-29.59258 -2.29736,51.64813 41.24408,31.17263 -49.83022,13.77522 -16.90181,48.85833 -28.49939,-43.13458 -51.68998,-0.97652 32.21662,-40.43385 z m -6.33989,6.69994 50.21665,12.29207 38.5945,-34.39872 3.82734,51.55733 44.64148,26.07577 -47.85122,19.57211 -11.00455,50.51442 -33.40103,-39.4611 -51.44266,5.14387 27.20825,-43.96041 z m -5.50297,7.40275 51.318,6.26651 34.25517,-38.72197 9.89833,50.74279 47.4122,20.61285 -45.2005,25.09425 -4.95281,51.46141 -37.83377,-35.23368 -50.47321,11.19205 21.81794,-46.86987 z m -4.5888,8.00165 51.69897,0.15298 29.43496,-42.50165 15.83036,49.21592 49.51738,14.86058 -41.91527,30.26412 1.16846,51.686 -41.73542,-30.51166 -48.79523,17.08312 16.12136,-49.12137 z m -3.61021,8.48821 51.35419,-5.96269 24.20156,-45.6847 21.54017,46.99817 50.92743,8.8997 -38.04164,35.00915 7.27333,51.18502 -45.0512,-25.36132 -46.43226,22.73438 10.19846,-50.68331 z m -2.58094,8.85563 50.28852,-11.99466 18.62841,-48.22644 26.94761,44.12067 51.62256,2.81388 -33.63398,39.26274 13.27609,49.96551 -47.73455,-19.85496 -43.41749,28.0665 4.1324,-51.53378 z m -1.51544,9.09873 48.5169,-17.85825 12.79376,-50.09119 31.97676,40.62381 51.59304,-3.31143 -28.75418,42.96515 19.09248,48.04461 -49.74781,-14.06989 -39.79323,33.00463 -1.99167,-51.66082 z m -0.42867,9.2141 46.06421,-23.47116 6.77952,-51.25275 36.55703,36.55668 50.83925,-9.39026 -23.47073,46.06443 24.64087,45.44926 -51.06273,-8.0873 -35.61037,37.47944 -8.08777,-51.06265 z m 0.66412,9.20013 42.96488,-28.75458 0.67011,-51.69485 40.62411,31.97638 49.37181,-15.33727 -17.85781,48.51706 29.84334,42.2159 -51.66084,-1.99118 -30.9276,41.42813 -14.07035,-49.74768 z m 1.74758,9.05701 39.26242,-33.63435 -5.4487,-51.41127 44.12092,26.9472 47.21128,-21.06898 -11.99419,50.28863 34.62687,38.38992 -51.53373,4.13289 -25.8107,44.79525 -19.8554,-47.73436 z m 2.80652,8.78674 35.00881,-38.04196 -11.49104,-50.40598 46.99837,21.53974 44.38802,-26.50493 -5.96222,51.35425 38.92434,34.02503 -50.68322,10.19894 -20.33145,47.53356 -25.36174,-45.05097 z m 3.82606,8.39313 30.26374,-41.91554 -17.37206,-48.69311 49.21607,15.8299 40.94164,-31.5688 0.15346,51.69897 42.67538,29.18251 -49.12122,16.12182 -14.5668,49.60459 -30.51205,-41.73514 z m 4.79189,7.88171 25.09383,-45.20074 -23.00921,-46.29668 50.74288,9.89785 36.92053,-36.18952 6.26698,51.31795 45.82736,23.93033 -46.86967,21.81838 -8.59766,50.97928 -35.23404,-37.83345 z m 5.69045,7.25963 19.57166,-47.8514 -28.32336,-43.25037 51.55736,3.82687 32.38114,-40.30222 12.29254,50.21653 48.33601,18.34223 -43.96016,27.20866 -2.50784,51.63833 -39.46141,-33.40066 z m 6.50912,6.53565 13.77476,-49.83034 -33.23992,-39.5969 51.6481,-2.29785 27.38719,-43.84916 18.14552,48.41019 50.16614,12.49663 -40.43355,32.21699 3.61719,51.5725 -43.13484,-28.499 z m 7.23643,5.71992 7.78448,-51.10977 -37.68986,-35.38758 51.01381,-8.39031 22.00878,-46.78056 23.7438,45.92428 51.29204,6.47561 -36.33935,36.77306 9.69144,50.78271 -46.20274,-23.19727 z m 7.86215,4.8239 1.68493,-51.67174 -41.61072,-30.68149 49.6634,-14.36499 16.32142,-49.05525 29.00875,42.79368 51.69792,0.36368 -31.73502,40.81294 15.62965,49.28002 -48.62206,-17.5699 z m 8.37751,3.86015 -4.43828,-51.50833 -44.94746,-25.54472 47.61583,-20.138 10.40494,-50.64133 33.86648,39.06236 51.37807,-5.75334 -26.6852,44.27987 21.34846,47.08556 -50.35884,-11.69589 z m 8.77526,2.84223 -10.49918,-50.62187 -47.65324,-20.04934 44.89984,-25.62833 4.3424,-51.51651 38.2488,34.78269 50.33699,-11.78961 -21.26078,47.12522 26.76757,44.23012 -51.38869,-5.6577 z m 9.04982,1.7844 -16.41269,-49.02479 -49.69007,-14.27251 41.55355,-30.7589 -1.7811,-51.66851 42.0942,30.01475 48.58928,-17.66037 -15.5379,49.30903 31.81093,40.75379 -51.69715,0.45991 z m 9.19735,0.70153 -22.09581,-46.73951 -51.02935,-8.29534 37.62393,-35.45767 -7.8796,-51.09519 45.34869,24.82546 46.15949,-23.28323 -9.59691,50.80065 36.40773,36.70537 -51.27989,6.57107 z m 9.21577,-0.3912 -27.46875,-43.7981 -51.6523,-2.20172 33.16617,-39.65869 -13.86749,-49.80462 47.96657,19.28768 43.08172,-28.57923 -3.52119,51.57914 40.49345,32.14168 -50.14279,12.58998 z m 9.10482,-1.47843 -32.4561,-40.24187 -51.55015,3.92282 28.24281,-43.30301 -19.6607,-47.81489 49.91111,13.47915 39.39918,-33.47405 2.60395,51.63358 44.01073,27.12679 -48.30178,18.43215 z m 8.86605,-2.5449 -36.98783,-36.12074 -50.72436,9.99229 22.923,-46.33944 -25.17793,-45.15395 51.15502,7.4814 35.16355,-37.89897 8.69254,50.96319 46.9102,21.7311 -45.78273,24.01559 z m 8.50283,-3.57567 -41.00033,-31.49254 -49.18651,15.92149 17.28139,-48.72536 -30.34171,-41.85915 51.68081,1.37862 30.43432,-41.79186 14.6591,49.57739 49.15115,16.03035 -42.62099,29.2619 z m 8.02024,-4.55622 -44.43727,-26.42226 -46.9582,21.62718 11.39719,-50.42728 -35.07955,-37.97673 51.48112,-4.74352 25.27784,-45.09809 20.4199,47.49563 50.70211,10.10458 -38.86093,34.09743 z m 7.42507,-5.47282 -47.25042,-20.98107 -44.07068,27.02928 5.353,-51.42132 -39.32496,-33.56121 50.55875,-10.79905 19.76652,-47.77125 25.89403,44.74714 51.54134,4.03696 -34.55536,38.4543 z m 6.72566,-6.31259 -49.40026,-15.24535 -40.56452,32.05194 -0.76634,-51.69352 -43.01833,-28.67455 48.92665,-16.703 13.97773,-49.77379 31.00466,41.37049 51.65704,-2.08734 -29.76471,42.27137 z m 5.93185,-7.06375 -50.85664,-9.29562 -36.48892,36.62466 -6.87491,-51.24004 -46.10782,-23.38538 46.60771,-22.37248 7.99272,-51.07762 35.68006,37.4131 51.04759,-8.18233 -24.55622,45.49504 z m 5.05476,-7.71575 -51.59911,-3.2154 -31.90109,40.68326 -12.88698,-50.06728 -48.55005,-17.76792 43.63451,-27.72789 1.89551,-51.66443 39.85459,32.9305 49.72154,-14.16246 -19.00302,48.08006 z"
       transform="matrix(0.26458333,0,0,0.26458333,35.543012,79.04301)"
       inkscape:transform-center-x="0.55931107"
       inkscape:transform-center-y="1.427436"
       inkscape:path-effect="#path-effect594"
       class="UnoptimicedTransforms" /></g></svg>
